<svg width="64" height="64" viewBox="0 0 64 64" fill="none" xmlns="http://www.w3.org/2000/svg">
<rect x="8.66666" y="13.3333" width="46.6667" height="37.3333" fill="white"/>
<path d="M27.3333 22.6667H27.3567" stroke="#E7000B" stroke-width="5" stroke-linecap="round" stroke-linejoin="round"/>
<path d="M32 32H32.0233" stroke="#E7000B" stroke-width="5" stroke-linecap="round" stroke-linejoin="round"/>
<path d="M36.6667 22.6667H36.69" stroke="#E7000B" stroke-width="5" stroke-linecap="round" stroke-linejoin="round"/>
<path d="M41.3333 32H41.3567" stroke="#E7000B" stroke-width="5" stroke-linecap="round" stroke-linejoin="round"/>
<path d="M46 22.6667H46.0233" stroke="#E7000B" stroke-width="5" stroke-linecap="round" stroke-linejoin="round"/>
<path d="M18 22.6667H18.0233" stroke="#E7000B" stroke-width="5" stroke-linecap="round" stroke-linejoin="round"/>
<path d="M20.3333 41.3333H43.6667" stroke="#E7000B" stroke-width="5" stroke-linecap="round" stroke-linejoin="round"/>
<path d="M22.6667 32H22.69" stroke="#E7000B" stroke-width="5" stroke-linecap="round" stroke-linejoin="round"/>
<path d="M50.6667 13.3333H13.3333C10.756 13.3333 8.66666 15.4227 8.66666 18V46C8.66666 48.5773 10.756 50.6667 13.3333 50.6667H50.6667C53.244 50.6667 55.3333 48.5773 55.3333 46V18C55.3333 15.4227 53.244 13.3333 50.6667 13.3333Z" stroke="#E7000B" stroke-width="5" stroke-linecap="round" stroke-linejoin="round"/>
</svg>
